<?xml version="1.0" standalone="no"?><!DOCTYPE svg PUBLIC "-//W3C//DTD SVG 1.1//EN" "http://www.w3.org/Graphics/SVG/1.1/DTD/svg11.dtd"><svg t="1766731723728" class="icon" viewBox="0 0 1024 1024" version="1.1" xmlns="http://www.w3.org/2000/svg" p-id="9579" xmlns:xlink="http://www.w3.org/1999/xlink" width="200" height="200"><path d="M914.773333 450.56c-3.413333 6.826667-68.266667 54.613333-194.56-13.653333 0 0-6.826667-3.413333-6.826666 6.826666 0 10.24-6.826667 71.68-44.373334 75.093334-10.24 0-58.026667-6.826667-61.44-112.64 0-6.826667-51.2 95.573333-105.813333 88.746666-6.826667 0-23.893333-27.306667 6.826667-112.64 3.413333-6.826667 27.306667-61.44 37.546666-81.92h-112.64s-3.413333 6.826667 6.826667 13.653334c6.826667 3.413333 54.613333 34.133333 30.72 75.093333-6.826667 10.24-23.893333 17.066667-75.093333 0v68.266667s47.786667-23.893333 95.573333-13.653334c0 0-6.826667 54.613333 20.48 58.026667v20.48s105.813333-30.72 194.56 23.893333c13.653333 6.826667 112.64 47.786667 30.72 177.493334-6.826667 13.653333-102.4 167.253333-252.586667 266.24-3.413333 3.413333-51.2 10.24-37.546666-37.546667 3.413333-10.24 54.613333-81.92 58.026666-105.813333 0-6.826667 17.066667-68.266667-58.026666-88.746667-10.24-3.413333-27.306667-3.413333-37.546667 13.653333-6.826667 10.24-47.786667 64.853333-81.92 44.373334-10.24-6.826667-37.546667-20.48-37.546667-194.56v-221.866667c0-3.413333-3.413333-3.413333-13.653333 6.826667-6.826667 6.826667-78.506667 71.68-126.293333 58.026666-6.826667-3.413333-27.306667-34.133333 37.546666-105.813333 3.413333-17.066667 30.72-44.373333 34.133334-44.373333 0 0 6.826667-3.413333 0-6.826667 0 0-136.533333 0-112.64-75.093333 3.413333-10.24 34.133333-37.546667 146.773333-30.72 6.826667 0-20.48-98.986667 44.373333-146.773334 6.826667-6.826667 37.546667-34.133333 81.92 20.48 3.413333 6.826667 23.893333 30.72 20.48 119.466667h170.666667s-13.653333-81.92 44.373333-146.773333c6.826667-6.826667 37.546667-27.306667 68.266667 6.826666 3.413333 6.826667 30.72 27.306667 37.546667 133.12 0 3.413333 150.186667-13.653333 150.186666 51.2 0 10.24 0 47.786667-133.12 58.026667-10.24 0 20.48 95.573333 139.946667 126.293333 13.653333 0 51.2 3.413333 34.133333 27.306667z m-385.706666 245.76c20.48-6.826667 34.133333-23.893333 37.546666-30.72 23.893333-58.026667-34.133333-64.853333-51.2-61.44-64.853333 13.653333-75.093333 88.746667-75.093333 88.746667 23.893333 6.826667 75.093333 6.826667 88.746667 3.413333z m-20.48-194.56z m0 0z m0 0z m-3.413334 0s3.413333 0 0 0c3.413333 0 0 0 0 0z m0 0z m0 0z m0 0z" fill="#E5B55D" p-id="9580"></path></svg>